<svg width="183" height="51" viewBox="0 0 183 51" fill="none" xmlns="http://www.w3.org/2000/svg">
<g clip-path="url(#clip0_20_28)">
<path fill-rule="evenodd" clip-rule="evenodd" d="M45.262 10.9444C51.8281 9.97167 49.7205 3.85141 47.9979 0.912865C47.2133 3.85511 43.7391 4.62199 41.1484 4.64908C40.0456 4.66061 38.9893 4.29323 37.9709 3.86999C31.8165 1.31215 24.0037 0.819403 20.6391 0.912865C10.6683 0.912865 6.35173 10.9444 6.65571 15.2002H5.13576C3.79266 15.2002 2.70387 16.2891 2.70387 17.6321V19.1521H1.48792C0.816373 19.1521 0.271973 19.6965 0.271973 20.368V20.976C0.271973 21.6476 0.816373 22.1919 1.48792 22.1919H2.70387V32.8315C2.70387 34.1746 3.79266 35.2634 5.13576 35.2634H7.56767V37.0873C7.56767 42.4597 11.9228 46.8149 17.2952 46.8149H38.2703C43.6427 46.8149 47.9979 42.4597 47.9979 37.0873V35.2634H51.0378C52.3808 35.2634 53.4697 34.1746 53.4697 32.8315V22.1919H54.6856C55.3571 22.1919 55.9016 21.6476 55.9016 20.976V20.368C55.9016 19.6965 55.3571 19.1521 54.6856 19.1521H53.4697V17.3282C53.4697 15.9851 52.3808 14.8963 51.0378 14.8963H47.9979C47.9979 13.6803 46.2753 11.8564 45.262 10.9444ZM6.35173 30.7036C6.35173 31.3751 6.89611 31.9195 7.56767 31.9195H20.3351C21.0066 31.9195 21.5511 31.3751 21.5511 30.7036V19.76C21.5511 19.0885 21.0066 18.5441 20.3351 18.5441H7.56767C6.89611 18.5441 6.35173 19.0885 6.35173 19.76V30.7036ZM34.9265 30.7036C34.9265 31.3751 35.4709 31.9195 36.1424 31.9195H48.9099C49.5814 31.9195 50.1258 31.3751 50.1258 30.7036V19.76C50.1258 19.0885 49.5814 18.5441 48.9099 18.5441H36.1424C35.4709 18.5441 34.9265 19.0885 34.9265 19.76V30.7036Z" fill="white"/>
<path fill-rule="evenodd" clip-rule="evenodd" d="M75.6605 2.12885H79.3084V19.1521H83.2602V22.1919H79.3084V29.4876H75.6605V22.1919H62.8931V19.1521L75.6605 2.12885ZM75.6605 7.2966V19.1521H67.4529L75.6605 7.2966Z" fill="white"/>
<path d="M99.9775 19.1521V16.1122H108.49V26.7517C92.0757 34.3514 85.084 24.0159 85.084 16.1122C85.084 -2.61338 105.451 1.21687 108.489 5.77664L106.057 8.20854C96.0257 1.52085 89.3398 8.81651 89.3398 16.1122C89.3398 26.7517 99.9793 26.6504 104.843 24.6238V19.1521H99.9775Z" fill="white"/>
<path fill-rule="evenodd" clip-rule="evenodd" d="M128.554 19.76H115.179C115.179 27.5421 122.88 26.2451 126.73 24.6238L128.554 26.4478C120.347 32.2235 111.531 27.0557 111.531 20.064C111.531 12.5252 117.307 10.1338 120.043 10.0325C128.311 10.0325 129.162 16.5175 128.554 19.76ZM115.787 17.3282H125.21V17.1762C125.21 14.5739 123.101 12.4644 120.499 12.4644C117.896 12.4644 115.787 14.5739 115.787 17.1762V17.3282Z" fill="white"/>
<path fill-rule="evenodd" clip-rule="evenodd" d="M134.634 19.76H148.009C148.617 16.5175 147.766 10.0325 139.498 10.0325C136.762 10.1338 130.986 12.5252 130.986 20.064C130.986 27.0557 139.802 32.2235 148.009 26.4478L146.185 24.6238C142.335 26.2451 134.634 27.5421 134.634 19.76ZM144.665 17.3282H135.242V17.1762C135.242 14.5739 137.352 12.4644 139.954 12.4644C142.556 12.4644 144.665 14.5739 144.665 17.1762V17.3282Z" fill="white"/>
<path fill-rule="evenodd" clip-rule="evenodd" d="M130.313 42.816H123.535C123.692 46.2421 127.356 46.1964 129.18 44.9805L130.237 46.0748C127.048 49.33 121.581 47.4124 121.276 42.9859C120.987 38.7835 124.342 37.4374 125.795 37.3808C130.184 37.3808 130.636 41.0043 130.313 42.816ZM123.535 41.4572H128.538V41.2409C128.538 39.8595 127.418 38.7396 126.037 38.7396C124.655 38.7396 123.535 39.8595 123.535 41.2409V41.4572Z" fill="white"/>
<path d="M155.305 1.52087H151.657V28.8797H155.305V20.368H156.521L163.513 28.8797H167.769L159.561 18.2401L167.465 10.3365H163.209L156.521 17.3282H155.305V1.52087Z" fill="white"/>
<path d="M180.84 14.2883L182.664 11.8564C180.097 10.2228 175.022 8.15915 171.701 10.9199C169.329 12.8927 168.804 16.1409 170.759 18.5281C171.628 19.5894 173.398 20.1501 174.915 20.6305C175.334 20.763 175.733 20.8893 176.089 21.0185C177.296 21.4568 178.384 22.0836 178.828 22.9125C180.146 25.3738 175.6 27.1948 173.017 26.135C172.276 25.8309 171.597 25.3518 171.112 24.6239L168.68 27.0558C169.8 28.347 172.966 30.2523 177.621 29.1568C179.406 28.7366 181.123 27.7937 182.016 26.1918C182.711 24.9463 183.081 23.369 182.486 21.7489C181.662 19.5081 179.113 18.684 176.827 17.9447L176.641 17.8845C174.279 17.1195 172.338 15.9956 173.544 13.9843C174.456 12.4643 176.706 11.37 180.84 14.2883Z" fill="white"/>
<path fill-rule="evenodd" clip-rule="evenodd" d="M77.7883 48.0203L82.9561 34.3409H85.692L90.8598 48.0203H88.1239L86.9079 44.3724H81.7402L80.5242 48.0203H77.7883ZM82.3481 42.5485L84.476 36.4688L86.6039 42.5485H82.3481Z" fill="white"/>
<path d="M97.9968 37.5765C99.0164 37.8676 99.9211 38.4694 100.587 39.2994L98.9902 40.6001C98.5908 40.1023 98.0485 39.7414 97.4369 39.5668C96.8252 39.3923 96.1753 39.4128 95.5759 39.6254C94.977 39.8381 94.4572 40.2325 94.0894 40.7545C93.7215 41.2764 93.5233 41.9003 93.5215 42.5404C93.5197 43.1805 93.7149 43.8054 94.0802 44.3293C94.4456 44.8532 94.9624 45.2504 95.5607 45.4661C96.1589 45.682 96.8088 45.7058 97.4217 45.5346C98.0339 45.3633 98.578 45.0052 98.9805 44.5095L100.57 45.8186C99.9004 46.6451 98.9921 47.2422 97.9707 47.5278C96.9499 47.8135 95.8659 47.7736 94.8688 47.4138C93.8711 47.0539 93.0084 46.3916 92.3998 45.5181C91.7906 44.6445 91.4654 43.6024 91.4678 42.535C91.4708 41.4676 91.8016 40.4272 92.415 39.5569C93.0285 38.6865 93.8942 38.0288 94.8937 37.6742C95.8932 37.3196 96.9772 37.2855 97.9968 37.5765Z" fill="white"/>
<path fill-rule="evenodd" clip-rule="evenodd" d="M102.185 39.1552L103.69 40.7129C103.852 40.378 104.592 39.6384 105.756 39.4949C106.356 39.421 106.988 39.6464 107.255 40.189C107.453 40.592 107.6 41.1719 107.6 41.9591C105.495 41.6476 101.161 42.4576 101.883 45.6976C102.486 47.5668 104.894 48.8129 107.901 46.3206V47.5668H109.707V41.6323C109.707 40.4156 109.461 39.1395 108.518 38.3703C107.107 37.2187 104.805 36.6241 102.185 39.1552ZM107.592 43.7133C107.603 43.3984 107.337 43.152 107.025 43.1934C106.01 43.3281 104.613 43.8329 104.138 44.7755C103.871 45.3065 104.301 45.8904 104.887 45.9906C106.064 46.1918 107.524 45.7929 107.592 43.7133Z" fill="white"/>
<path fill-rule="evenodd" clip-rule="evenodd" d="M120.049 33.1249H117.617V38.2927C111.841 36.1648 110.828 40.522 110.93 42.8525C110.93 48.6283 115.794 48.0203 117.617 46.1964V47.7163H120.049V33.1249ZM117.314 41.1326C116.64 39.5916 114.369 39.6033 113.608 41.1036C112.94 42.4215 113.301 43.7838 114.005 44.7324C114.719 45.6936 116.142 45.5229 116.85 44.5567C117.749 43.3272 117.745 42.115 117.314 41.1326Z" fill="white"/>
<path d="M133.722 37.4163H131.594V47.4479H134.026V40.7602C134.026 39.9207 134.707 39.2402 135.546 39.2402C136.385 39.2402 137.066 39.9207 137.066 40.7602V47.4479H139.802V40.7602C139.802 39.9207 140.483 39.2402 141.322 39.2402C142.161 39.2402 142.842 39.9207 142.842 40.7602V47.4479H145.273V41.5423C145.273 39.8936 144.59 38.1335 143 37.699C141.082 37.175 139.632 38.1196 138.89 38.9362C137.066 36.2004 134.33 37.7203 133.722 38.6323V37.4163Z" fill="white"/>
<path d="M146.793 37.9888H149.529L151.961 44.0685L154.089 37.9888H157.129L151.049 50.7562H148.617L150.745 46.5004L146.793 37.9888Z" fill="white"/>
</g>
<defs>
<clipPath id="clip0_20_28">
<rect width="183" height="49.8538" fill="white" transform="translate(0 0.902344)"/>
</clipPath>
</defs>
</svg>
