<svg width="60" height="60" viewBox="0 0 60 60" fill="none" xmlns="http://www.w3.org/2000/svg">
<path d="M3.23245 28.2325L13.2325 18.2325C13.4631 17.9937 13.7389 17.8032 14.0439 17.6722C14.349 17.5412 14.677 17.4722 15.009 17.4693C15.3409 17.4665 15.6701 17.5297 15.9773 17.6554C16.2846 17.7811 16.5637 17.9667 16.7984 18.2015C17.0332 18.4362 17.2188 18.7153 17.3445 19.0226C17.4702 19.3298 17.5335 19.659 17.5306 19.991C17.5277 20.3229 17.4587 20.651 17.3277 20.956C17.1967 21.261 17.0062 21.5369 16.7675 21.7675L8.53495 30L16.7675 38.2325C17.0062 38.4631 17.1967 38.739 17.3277 39.044C17.4587 39.349 17.5277 39.677 17.5306 40.009C17.5335 40.3409 17.4702 40.6701 17.3445 40.9774C17.2188 41.2846 17.0332 41.5637 16.7984 41.7985C16.5637 42.0332 16.2846 42.2188 15.9773 42.3445C15.6701 42.4702 15.3409 42.5335 15.009 42.5306C14.677 42.5277 14.349 42.4588 14.0439 42.3277C13.7389 42.1967 13.4631 42.0063 13.2325 41.7675L3.23245 31.7675C2.76378 31.2987 2.50049 30.6629 2.50049 30C2.50049 29.3371 2.76378 28.7013 3.23245 28.2325ZM46.7675 18.2325C46.5368 17.9937 46.261 17.8032 45.956 17.6722C45.651 17.5412 45.3229 17.4722 44.991 17.4693C44.659 17.4665 44.3298 17.5297 44.0226 17.6554C43.7153 17.7811 43.4362 17.9667 43.2015 18.2015C42.9667 18.4362 42.7811 18.7153 42.6554 19.0226C42.5297 19.3298 42.4664 19.659 42.4693 19.991C42.4722 20.3229 42.5412 20.651 42.6722 20.956C42.8032 21.261 42.9937 21.5369 43.2325 21.7675L51.465 30L43.2325 38.2325C42.9937 38.4631 42.8032 38.739 42.6722 39.044C42.5412 39.349 42.4722 39.677 42.4693 40.009C42.4664 40.3409 42.5297 40.6701 42.6554 40.9774C42.7811 41.2846 42.9667 41.5637 43.2015 41.7985C43.4362 42.0332 43.7153 42.2188 44.0226 42.3445C44.3298 42.4702 44.659 42.5335 44.991 42.5306C45.3229 42.5277 45.651 42.4588 45.956 42.3277C46.261 42.1967 46.5368 42.0063 46.7675 41.7675L56.7675 31.7675C57.2361 31.2987 57.4994 30.6629 57.4994 30C57.4994 29.3371 57.2361 28.7013 56.7675 28.2325L46.7675 18.2325ZM32.5975 11.815L22.5975 46.815C22.4154 47.4522 22.4938 48.1355 22.8154 48.715C23.137 49.2944 23.6754 49.7224 24.3125 49.905C24.5364 49.9669 24.7676 49.9988 25 50C25.5432 49.9996 26.0716 49.8222 26.5051 49.4947C26.9386 49.1673 27.2536 48.7075 27.4025 48.185L37.4025 13.185C37.5067 12.8653 37.5454 12.528 37.5162 12.1931C37.487 11.8581 37.3906 11.5325 37.2327 11.2357C37.0748 10.9389 36.8587 10.677 36.5973 10.4657C36.3358 10.2543 36.0344 10.0979 35.7111 10.0057C35.3878 9.91355 35.0492 9.88752 34.7156 9.92921C34.382 9.97089 34.0603 10.0794 33.7696 10.2483C33.4789 10.4172 33.2253 10.643 33.0239 10.9122C32.8225 11.1814 32.6775 11.4884 32.5975 11.815Z" fill="#E2E8F0"/>
</svg>
