<svg width="183" height="56" viewBox="0 0 183 56" fill="none" xmlns="http://www.w3.org/2000/svg">
<g clip-path="url(#clip0_20_17)">
<path d="M80.7514 4.94818C80.7514 7.41444 78.7523 9.4137 76.2861 9.4137C73.8199 9.4137 71.8208 7.41444 71.8208 4.94818C71.8208 2.48194 73.8199 0.482666 76.2861 0.482666C78.7523 0.482666 80.7514 2.48194 80.7514 4.94818Z" fill="white"/>
<path d="M0.118408 1.29468V39.6837H6.86188V1.29468H0.118408Z" fill="white"/>
<path fill-rule="evenodd" clip-rule="evenodd" d="M9.49438 26.0905C9.49438 18.4816 15.4776 11.8339 24.1236 11.8339C33.1165 11.8339 38.7039 18.8252 38.7039 26.0721C38.7039 34.6901 31.9611 40.4326 24.1908 40.4326C16.0034 40.4326 9.49438 34.5825 9.49438 26.0905ZM31.8994 26.1149C31.8994 21.8612 28.5689 18.3391 24.0442 18.3391C19.7573 18.3391 16.3478 21.7595 16.3478 26.1271C16.3478 30.1118 19.3677 33.9151 24.1663 33.9151C28.2274 33.9151 31.8994 30.625 31.8994 26.1149Z" fill="white"/>
<path fill-rule="evenodd" clip-rule="evenodd" d="M55.647 11.8339C47.001 11.8339 41.0178 18.4816 41.0178 26.0905C41.0178 34.5825 47.5268 40.4326 55.7142 40.4326C63.4848 40.4326 70.2275 34.6901 70.2275 26.0721C70.2275 20.9972 68.0298 18.7454 68.0298 18.7454L69.8984 18.1045V12.6315H60.3213C60.3213 12.6315 58.2448 11.8339 55.647 11.8339ZM55.5676 18.3391C60.0921 18.3391 63.423 21.8612 63.423 26.1149C63.423 30.625 59.7509 33.9151 55.6898 33.9151C50.8912 33.9151 47.8713 30.1118 47.8713 26.1271C47.8713 21.7595 51.2808 18.3391 55.5676 18.3391Z" fill="white"/>
<path d="M55.6421 49.3847C59.703 49.3847 63.3751 46.0702 63.3751 41.5601H70.1796C70.1796 50.178 63.4369 55.9022 55.6666 55.9022C47.4792 55.9022 40.9702 50.0521 40.9702 41.5601H47.8114C47.8114 45.5447 50.8436 49.3847 55.6421 49.3847Z" fill="white"/>
<path d="M72.9287 39.6837V12.6315H79.672V39.6837H72.9287Z" fill="white"/>
<path d="M86.2201 18.6909V39.6837H92.9634V18.6909H96.6771V12.6315H92.9634V4.32434H86.2201V12.6315H82.604V18.6909H86.2201Z" fill="white"/>
<path fill-rule="evenodd" clip-rule="evenodd" d="M97.5505 26.3348C97.5505 18.4667 103.151 11.8155 111.838 11.8155C121.403 11.8155 125.692 19.5913 125.692 27.0006V28.8575H104.679C105.67 32.494 108.511 34.4771 112.064 34.4771C116.326 34.4771 119.73 30.806 119.73 30.806L124.238 35.32C124.238 35.32 120.196 40.4509 111.979 40.4509C103.17 40.4509 97.5505 34.4656 97.5505 26.3348ZM118.618 23.3845C117.907 19.4146 114.731 17.7527 111.624 17.7527C107.497 17.7527 105.055 20.5939 104.496 23.3845H118.618Z" fill="white"/>
<path d="M142.559 40.4544C133.847 40.4544 127.911 33.8194 127.911 25.9963C127.911 17.9227 134.62 11.8104 142.531 11.8104C150.178 11.8104 154.093 17.2091 154.093 17.2091L149.389 21.892C149.389 21.892 146.664 18.3712 142.499 18.3712C137.883 18.3712 134.727 21.9024 134.727 26.0998C134.727 30.5318 138.084 33.9321 142.447 33.9321C146.679 33.9321 149.382 30.417 149.382 30.417L154.133 35.0974C154.133 35.0974 150.257 40.4544 142.559 40.4544Z" fill="white"/>
<path d="M156.587 1.1969V39.7032H163.33V25.1412C163.33 20.4278 166.475 18.4108 170.019 18.4108C173.13 18.4108 175.938 20.2819 175.938 24.7922V39.7032H182.681V23.7729C182.681 17.0595 178.59 11.8104 171.529 11.8104C165.912 11.8104 163.33 15.3443 163.33 15.3443V1.1969H156.587Z" fill="white"/>
</g>
<defs>
<clipPath id="clip0_20_17">
<rect width="183" height="55.4196" fill="white" transform="translate(0 0.482666)"/>
</clipPath>
</defs>
</svg>
