<svg width="60" height="60" viewBox="0 0 60 60" fill="none" xmlns="http://www.w3.org/2000/svg">
<g clip-path="url(#clip0_33_595)">
<path d="M50.625 45C49.7894 45.0042 48.9656 45.197 48.2149 45.564L40.1514 37.5H33.75V41.25H38.5986L45.5634 48.2153C45.1971 48.966 45.0045 49.7896 45 50.625C45 51.7375 45.3299 52.8251 45.948 53.7501C46.5661 54.6751 47.4446 55.3961 48.4724 55.8218C49.5002 56.2476 50.6312 56.359 51.7224 56.1419C52.8135 55.9249 53.8158 55.3892 54.6025 54.6025C55.3892 53.8158 55.9249 52.8135 56.1419 51.7224C56.359 50.6312 56.2476 49.5002 55.8218 48.4724C55.3961 47.4446 54.6751 46.5661 53.7501 45.948C52.8251 45.3299 51.7375 45 50.625 45ZM50.625 52.5C50.2542 52.5 49.8917 52.39 49.5833 52.184C49.275 51.978 49.0346 51.6851 48.8927 51.3425C48.7508 50.9999 48.7137 50.6229 48.786 50.2592C48.8584 49.8955 49.037 49.5614 49.2992 49.2992C49.5614 49.037 49.8955 48.8584 50.2592 48.786C50.6229 48.7137 50.9999 48.7508 51.3425 48.8927C51.6851 49.0346 51.978 49.275 52.184 49.5833C52.39 49.8916 52.5 50.2542 52.5 50.625C52.4996 51.1221 52.3019 51.5988 51.9503 51.9503C51.5988 52.3019 51.1221 52.4996 50.625 52.5Z" fill="#E2E8F0"/>
<path d="M50.625 24.375C49.4655 24.3785 48.3355 24.7409 47.3903 25.4123C46.445 26.0838 45.7307 27.0314 45.3456 28.125H33.75V31.875H45.3456C45.6911 32.8445 46.2964 33.7004 47.0954 34.3492C47.8945 34.9979 48.8564 35.4146 49.8762 35.5536C50.896 35.6927 51.9344 35.5488 52.878 35.1376C53.8215 34.7264 54.6339 34.0638 55.2263 33.2222C55.8188 32.3805 56.1685 31.3923 56.2373 30.3653C56.3061 29.3384 56.0913 28.3123 55.6164 27.3992C55.1415 26.4861 54.4247 25.721 53.5444 25.1877C52.6642 24.6543 51.6542 24.3732 50.625 24.375ZM50.625 31.875C50.2542 31.875 49.8916 31.765 49.5833 31.559C49.275 31.353 49.0346 31.0601 48.8927 30.7175C48.7508 30.3749 48.7137 29.9979 48.786 29.6342C48.8584 29.2705 49.0369 28.9364 49.2992 28.6742C49.5614 28.412 49.8955 28.2334 50.2592 28.161C50.6229 28.0887 50.9999 28.1258 51.3425 28.2677C51.6851 28.4096 51.978 28.65 52.184 28.9583C52.39 29.2667 52.5 29.6292 52.5 30C52.4995 30.4972 52.3019 30.9738 51.9503 31.3253C51.5988 31.6769 51.1221 31.8746 50.625 31.875Z" fill="#E2E8F0"/>
<path d="M50.625 3.75C49.1337 3.75164 47.7039 4.3448 46.6493 5.39933C45.5948 6.45387 45.0016 7.88366 45 9.375C45.0064 10.2732 45.2304 11.1566 45.6527 11.9494L38.6169 18.75H33.75V22.5H40.1331L48.381 14.5268C49.1472 14.8607 49.9783 15.0197 50.8136 14.992C51.649 14.9644 52.4677 14.7509 53.2102 14.3669C53.9526 13.983 54.6002 13.4384 55.1056 12.7727C55.6111 12.107 55.9618 11.337 56.1322 10.5187C56.3026 9.70045 56.2884 8.85447 56.0906 8.04235C55.8929 7.23024 55.5165 6.47243 54.989 5.82408C54.4615 5.17573 53.7961 4.65314 53.0412 4.29435C52.2863 3.93556 51.4608 3.7496 50.625 3.75ZM50.625 11.25C50.2542 11.25 49.8916 11.14 49.5833 10.934C49.275 10.728 49.0346 10.4351 48.8927 10.0925C48.7508 9.74992 48.7137 9.37292 48.786 9.00921C48.8584 8.64549 49.037 8.3114 49.2992 8.04918C49.5614 7.78695 49.8955 7.60838 50.2592 7.53603C50.6229 7.46368 50.9999 7.50081 51.3425 7.64273C51.6851 7.78464 51.978 8.02496 52.184 8.33331C52.39 8.64165 52.5 9.00416 52.5 9.375C52.4996 9.87214 52.3019 10.3488 51.9503 10.7003C51.5988 11.0519 51.1221 11.2496 50.625 11.25Z" fill="#E2E8F0"/>
<path d="M33.75 11.25H37.5V7.5H33.75C32.6814 7.50359 31.6261 7.73688 30.6556 8.18407C29.6851 8.63125 28.822 9.28186 28.125 10.0918C27.428 9.28186 26.5649 8.63125 25.5944 8.18407C24.6239 7.73688 23.5686 7.50359 22.5 7.5H20.625C16.151 7.50496 11.8617 9.28445 8.69805 12.4481C5.53445 15.6117 3.75496 19.901 3.75 24.375V35.625C3.75496 40.099 5.53445 44.3883 8.69805 47.5519C11.8617 50.7155 16.151 52.495 20.625 52.5H22.5C23.5686 52.4964 24.6239 52.2631 25.5944 51.8159C26.5649 51.3688 27.428 50.7181 28.125 49.9082C28.822 50.7181 29.6851 51.3688 30.6556 51.8159C31.6261 52.2631 32.6814 52.4964 33.75 52.5H37.5V48.75H33.75C32.7558 48.7489 31.8026 48.3534 31.0996 47.6504C30.3966 46.9474 30.0011 45.9942 30 45V15C30.0011 14.0058 30.3966 13.0526 31.0996 12.3496C31.8026 11.6466 32.7558 11.2511 33.75 11.25ZM22.5 48.75H20.625C17.472 48.7445 14.4263 47.6049 12.0441 45.5394C9.66189 43.4739 8.10223 40.6204 7.65 37.5H11.25V33.75H7.5V26.25H13.125C14.6163 26.2484 16.0461 25.6552 17.1007 24.6007C18.1552 23.5461 18.7484 22.1163 18.75 20.625V16.875H15V20.625C14.9996 21.1221 14.8019 21.5988 14.4503 21.9503C14.0988 22.3019 13.6221 22.4996 13.125 22.5H7.65C8.10223 19.3796 9.66189 16.5261 12.0441 14.4606C14.4263 12.3951 17.472 11.2555 20.625 11.25H22.5C23.4942 11.2511 24.4474 11.6466 25.1504 12.3496C25.8534 13.0526 26.2489 14.0058 26.25 15V22.5H22.5V26.25H26.25V33.75H22.5C21.0087 33.7516 19.5789 34.3448 18.5243 35.3993C17.4698 36.4539 16.8766 37.8837 16.875 39.375V43.125H20.625V39.375C20.6254 38.8779 20.8231 38.4012 21.1747 38.0497C21.5262 37.6981 22.0029 37.5004 22.5 37.5H26.25V45C26.2489 45.9942 25.8534 46.9474 25.1504 47.6504C24.4474 48.3534 23.4942 48.7489 22.5 48.75Z" fill="#E2E8F0"/>
</g>
<defs>
<clipPath id="clip0_33_595">
<rect width="60" height="60" fill="white"/>
</clipPath>
</defs>
</svg>
