<svg width="183" height="51" viewBox="0 0 183 51" fill="none" xmlns="http://www.w3.org/2000/svg">
<g clip-path="url(#clip0_20_7)">
<path d="M17.9949 2.43111C18.085 2.03245 18.4393 1.74939 18.848 1.74939H24.4893C25.0503 1.74939 25.4662 2.26994 25.3425 2.81705L17.4286 37.8048C17.3384 38.2034 16.9842 38.4865 16.5755 38.4865H10.9341C10.3732 38.4865 9.95724 37.966 10.081 37.4188L17.9949 2.43111Z" fill="#06AA00"/>
<path d="M7.93581 2.43111C8.02597 2.03245 8.38022 1.74939 8.78893 1.74939H14.4303C14.9912 1.74939 15.4071 2.26994 15.2834 2.81705L7.3695 37.8048C7.27934 38.2034 6.92509 38.4865 6.51638 38.4865H0.875059C0.314119 38.4865 -0.101835 37.966 0.0219178 37.4188L7.93581 2.43111Z" fill="#06AA00"/>
<path d="M74.2337 35.8505C72.4396 38.1226 69.9967 39.2587 66.9047 39.2587C64.9059 39.2587 63.0009 38.7547 61.1899 37.7468C59.1741 36.6192 57.6111 35.0731 56.5005 33.1085C55.4242 31.1951 54.8862 29.0084 54.8862 26.5483C54.8862 22.4994 56.2954 19.2621 59.1146 16.8361C61.3524 14.9057 63.9234 13.9404 66.8278 13.9404C68.3651 13.9404 69.7234 14.1882 70.9023 14.6836C72.0981 15.179 73.2087 15.9649 74.2337 17.0411V16.4518C74.2337 15.683 74.3359 15.2046 74.541 15.0167C74.7461 14.8117 75.2331 14.7092 76.0018 14.7092H80.8963C81.665 14.7092 82.1434 14.8117 82.3315 15.0167C82.5362 15.2046 82.6387 15.683 82.6387 16.4518V36.7474C82.6387 37.5161 82.5362 38.003 82.3315 38.208C82.1434 38.3959 81.665 38.4899 80.8963 38.4899H76.0018C75.2331 38.4899 74.7461 38.3959 74.541 38.208C74.3359 38.003 74.2337 37.5161 74.2337 36.7474V35.8505ZM69.0573 21.1925C67.5539 21.1925 66.2725 21.7221 65.2131 22.7813C64.1542 23.8405 63.6245 25.1303 63.6245 26.6508C63.6245 28.0859 64.1542 29.3415 65.2131 30.4178C66.2555 31.477 67.5365 32.0066 69.0573 32.0066C70.5603 32.0066 71.8417 31.477 72.9011 30.4178C73.96 29.3586 74.4897 28.0859 74.4897 26.5996C74.4897 25.0791 73.96 23.8063 72.9011 22.7813C71.8078 21.7221 70.5264 21.1925 69.0573 21.1925Z" fill="white"/>
<path d="M103.45 35.8504C102.203 37.0121 101.024 37.8236 99.9137 38.2849C98.8204 38.7461 97.5047 38.9768 95.9673 38.9768C92.0723 38.9768 89.0054 37.5588 86.7676 34.7229C85.1104 32.6216 84.2817 30.0334 84.2817 26.9583C84.2817 23.0632 85.5205 19.8941 87.9977 17.4511C90.3038 15.179 93.0973 14.0429 96.3771 14.0429C97.8979 14.0429 99.2045 14.2906 100.298 14.7861C101.408 15.2644 102.459 16.0673 103.45 17.1949V16.4517C103.45 15.7 103.552 15.2217 103.757 15.0167C103.979 14.8117 104.467 14.7092 105.218 14.7092H110.113C110.881 14.7092 111.36 14.8117 111.548 15.0167C111.753 15.2046 111.855 15.683 111.855 16.4517V36.8498C111.855 40.0959 111.454 42.4706 110.651 43.9736C109.387 46.3656 107.49 48.1081 104.962 49.2013C103.031 50.0556 100.759 50.4827 98.1456 50.4827C92.7471 50.4827 88.7408 48.706 86.1271 45.1525C85.3754 44.1274 84.9995 43.1967 84.9995 42.3594C84.9995 42.0005 85.1277 41.7445 85.3837 41.5907C85.64 41.4538 86.0928 41.3856 86.742 41.3856H92.6359C93.2507 41.3856 93.6522 41.4282 93.8403 41.5138C94.0281 41.599 94.1992 41.8127 94.3527 42.1543C94.5408 42.6157 94.9936 42.9999 95.711 43.3075C96.4284 43.6151 97.2144 43.7689 98.0687 43.7689C99.9819 43.7689 101.451 43.1024 102.476 41.7701C103.125 40.9159 103.45 39.6944 103.45 38.1055V35.8504ZM98.4528 21.1156C96.9324 21.1156 95.651 21.6452 94.609 22.7044C93.5501 23.7636 93.0204 25.062 93.0204 26.5995C93.0204 28.0516 93.5501 29.3073 94.609 30.3665C95.651 31.4257 96.9324 31.9553 98.4528 31.9553C99.9562 31.9553 101.229 31.4257 102.271 30.3665C103.347 29.2902 103.886 28.009 103.886 26.5226C103.886 25.0193 103.347 23.7465 102.271 22.7044C101.195 21.6452 99.9223 21.1156 98.4528 21.1156Z" fill="white"/>
<path d="M122.852 16.4517V36.7473C122.852 37.5161 122.749 38.003 122.544 38.208C122.356 38.3959 121.878 38.4899 121.109 38.4899H116.189C115.42 38.4899 114.933 38.3959 114.728 38.208C114.541 38.003 114.446 37.5161 114.446 36.7473V16.4517C114.446 15.683 114.541 15.2046 114.728 15.0167C114.933 14.8117 115.42 14.7092 116.189 14.7092H121.109C121.878 14.7092 122.356 14.8117 122.544 15.0167C122.749 15.2046 122.852 15.683 122.852 16.4517ZM118.649 0.845642C119.965 0.845642 121.084 1.30691 122.006 2.22943C122.929 3.15196 123.39 4.26239 123.39 5.56079C123.39 6.87626 122.929 7.99524 122.006 8.91777C121.084 9.84031 119.973 10.3016 118.675 10.3016C117.342 10.3016 116.223 9.84031 115.318 8.91777C114.395 7.97816 113.934 6.84206 113.934 5.50951C113.934 4.24532 114.395 3.15196 115.318 2.22943C116.257 1.30691 117.368 0.845642 118.649 0.845642Z" fill="white"/>
<path d="M143.407 16.6568V19.9112C143.407 20.5433 143.364 20.9534 143.279 21.1413C143.108 21.5 142.826 21.6794 142.433 21.6794C142.279 21.6794 142.074 21.6282 141.818 21.5257C140.793 21.1156 139.879 20.9106 139.076 20.9106C137.248 20.9106 135.77 21.5342 134.643 22.7813C133.72 23.8063 133.259 25.1047 133.259 26.6764C133.259 28.3848 133.823 29.7601 134.95 30.8022C136.095 31.8614 137.461 32.391 139.05 32.391C139.939 32.391 140.853 32.203 141.792 31.8272C142.083 31.7247 142.296 31.6734 142.433 31.6734C143.082 31.6734 143.407 32.2543 143.407 33.416V36.568C143.407 37.1147 143.381 37.4649 143.33 37.6186C143.296 37.7724 143.202 37.9176 143.048 38.0543C142.655 38.3618 141.878 38.6437 140.716 38.8999C139.571 39.1562 138.512 39.2843 137.538 39.2843C135.061 39.2843 132.746 38.6437 130.594 37.3624C126.545 34.9706 124.521 31.4514 124.521 26.8046C124.521 22.8753 125.938 19.672 128.774 17.1949C131.217 15.0423 134.207 13.9661 137.743 13.9661C138.785 13.9661 139.836 14.0856 140.895 14.3248C141.955 14.564 142.672 14.8459 143.048 15.1705C143.287 15.3584 143.407 15.8538 143.407 16.6568Z" fill="white"/>
<path d="M163.475 35.8505C161.681 38.1226 159.238 39.2587 156.146 39.2587C154.147 39.2587 152.242 38.7547 150.431 37.7468C148.415 36.6192 146.852 35.0731 145.742 33.1085C144.665 31.1951 144.127 29.0084 144.127 26.5483C144.127 22.4994 145.537 19.2621 148.355 16.8361C150.594 14.9057 153.165 13.9404 156.069 13.9404C157.606 13.9404 158.965 14.1882 160.143 14.6836C161.339 15.179 162.45 15.9649 163.475 17.0411V16.4518C163.475 15.683 163.577 15.2046 163.782 15.0167C163.987 14.8117 164.474 14.7092 165.243 14.7092H170.138C170.906 14.7092 171.385 14.8117 171.572 15.0167C171.777 15.2046 171.88 15.683 171.88 16.4518V36.7474C171.88 37.5161 171.777 38.003 171.572 38.208C171.385 38.3959 170.906 38.4899 170.138 38.4899H165.243C164.474 38.4899 163.987 38.3959 163.782 38.208C163.577 38.003 163.475 37.5161 163.475 36.7474V35.8505ZM158.298 21.1925C156.795 21.1925 155.514 21.7221 154.454 22.7813C153.395 23.8405 152.866 25.1303 152.866 26.6508C152.866 28.0859 153.395 29.3415 154.454 30.4178C155.497 31.477 156.778 32.0066 158.298 32.0066C159.802 32.0066 161.083 31.477 162.142 30.4178C163.201 29.3586 163.731 28.0859 163.731 26.5996C163.731 25.0791 163.201 23.8063 162.142 22.7813C161.049 21.7221 159.768 21.1925 158.298 21.1925Z" fill="white"/>
<path d="M182.877 1.74255V36.7473C182.877 37.5161 182.774 38.003 182.569 38.208C182.381 38.3959 181.903 38.4899 181.134 38.4899H176.214C175.445 38.4899 174.958 38.3959 174.753 38.208C174.565 38.003 174.471 37.5161 174.471 36.7473V1.74255C174.471 0.973781 174.565 0.495433 174.753 0.307509C174.958 0.102503 175.445 0 176.214 0H181.134C181.903 0 182.381 0.102503 182.569 0.307509C182.774 0.495433 182.877 0.973781 182.877 1.74255Z" fill="white"/>
<path fill-rule="evenodd" clip-rule="evenodd" d="M23.9435 19.2627C23.8888 19.4983 23.9076 19.745 23.9975 19.9696L30.878 37.171C31.1343 37.8202 31.3478 38.2046 31.5187 38.3242C31.6895 38.4267 32.1252 38.4779 32.8256 38.4779H33.62C34.3204 38.4779 34.7475 38.4267 34.9013 38.3242C35.0721 38.2046 35.2942 37.8287 35.5675 37.1966L43.4857 18.3361L45.8434 36.8635C45.946 37.6152 46.0911 38.0765 46.2792 38.2473C46.467 38.4011 46.9367 38.4779 47.6884 38.4779H53.2494C53.9155 38.4779 54.3683 38.4096 54.6073 38.2729C54.8637 38.1192 54.9918 37.8544 54.9918 37.4785C54.9918 37.3419 54.9575 37.0429 54.8893 36.5816L50.123 5.08757C50.0035 4.35297 49.8497 3.90879 49.6616 3.75503C49.4738 3.5842 49.0124 3.49878 48.278 3.49878H42.256C41.5555 3.49878 41.1197 3.55857 40.949 3.67816C40.7951 3.78066 40.5818 4.15652 40.3085 4.80569L33.3381 22.1543L28.4686 9.34591C28.0534 8.25363 26.4744 8.36051 26.2101 9.49882L23.9435 19.2627Z" fill="white"/>
</g>
<defs>
<clipPath id="clip0_20_7">
<rect width="183" height="50.4828" fill="white"/>
</clipPath>
</defs>
</svg>
