<svg width="30" height="30" viewBox="0 0 30 30" fill="none" xmlns="http://www.w3.org/2000/svg">
<g clip-path="url(#clip0_33_608)">
<path fill-rule="evenodd" clip-rule="evenodd" d="M16.8872 9.4022H7.0003C6.22686 9.4022 5.5992 10.0299 5.5992 10.8033V22.9739C5.5992 23.7474 6.22686 24.375 7.0003 24.375H19.199C19.9725 24.375 20.6001 23.7474 20.6001 22.9739V13.1522H22.4747V23.4403C22.4747 24.9909 21.2156 26.25 19.6645 26.2505H6.53483C4.98373 26.2505 3.72467 24.9909 3.72467 23.4403V10.3369C3.72467 8.7858 4.98373 7.52673 6.53483 7.52673H16.8872V9.4022Z" fill="#6366F1"/>
<path fill-rule="evenodd" clip-rule="evenodd" d="M26.2148 11.8687H24.3375V6.95578L11.2622 20.0306L9.93469 18.7031L23.0105 5.62734H18.0961V3.75H26.2139L26.2148 3.75047V11.8687Z" fill="#6366F1"/>
</g>
<defs>
<clipPath id="clip0_33_608">
<rect width="30" height="30" fill="white"/>
</clipPath>
</defs>
</svg>
